# xmcd
#
# Track frame offsets:
#	150
#	16176
#	24066
#	40349
#	61680
#	82691
#	99920
#	117537
#	133537
#	149212
#	167678
#	185940
#	197885
#	216228
#	223091
#
# Disc length: 3095 seconds
#
# Revision: 1
# Processed by: cddbd v1.5.2PL0 Copyright (c) Steve Scherf et al.
# Submitted via: audiograbber 1.83.01
#
DISCID=d50c150f
DTITLE=Caramel - Újrahangolva
DYEAR=2006
DGENRE=R&B
TTITLE0=Kezeket fel
TTITLE1=Caramel visszatért
TTITLE2=Te vagy aki kell
TTITLE3=Melóban
TTITLE4=Párórára
TTITLE5=Aki mindíg remél
TTITLE6=Ismerõs idegen
TTITLE7=Nézz a tükörbe
TTITLE8=The collector
TTITLE9=Te vagy a világ
TTITLE10=Ne ébressz fel
TTITLE11=My confession
TTITLE12=Micsoda éjszaka
TTITLE13=Intro
TTITLE14=Krisztus Urunknak áldott születésén
EXTD=
EXTT0=
EXTT1=
EXTT2=
EXTT3=
EXTT4=
EXTT5=
EXTT6=
EXTT7=
EXTT8=
EXTT9=
EXTT10=
EXTT11=
EXTT12=
EXTT13=
EXTT14=
PLAYORDER=
